<svg width="23" height="24" viewBox="0 0 23 24" fill="none" xmlns="http://www.w3.org/2000/svg">
<path d="M6.53409 19H0.9375V4.45455H6.47727C7.97349 4.45455 9.2661 4.74574 10.3551 5.32812C11.4489 5.90578 12.2917 6.73911 12.8835 7.82812C13.4801 8.91241 13.7784 10.2121 13.7784 11.7273C13.7784 13.2424 13.4825 14.5445 12.8906 15.6335C12.2988 16.7178 11.4607 17.5511 10.3764 18.1335C9.29214 18.7112 8.01136 19 6.53409 19ZM4.88636 15.6477H6.39205C7.11174 15.6477 7.72491 15.5317 8.23153 15.2997C8.7429 15.0677 9.13116 14.6676 9.39631 14.0994C9.66619 13.5312 9.80114 12.7405 9.80114 11.7273C9.80114 10.714 9.66383 9.9233 9.3892 9.35511C9.11932 8.78693 8.72159 8.38684 8.19602 8.15483C7.67519 7.92282 7.03599 7.80682 6.27841 7.80682H4.88636V15.6477Z" fill="#270058"/>
<path d="M20.9425 14.1811H19.6143C19.5765 13.9633 19.5066 13.7704 19.4048 13.6023C19.303 13.4318 19.1764 13.2874 19.0249 13.169C18.8733 13.0507 18.7005 12.9619 18.5064 12.9027C18.3146 12.8411 18.1075 12.8104 17.8849 12.8104C17.4896 12.8104 17.1392 12.9098 16.8338 13.1087C16.5284 13.3052 16.2893 13.594 16.1165 13.9751C15.9437 14.3539 15.8572 14.8168 15.8572 15.3636C15.8572 15.92 15.9437 16.3887 16.1165 16.7699C16.2917 17.1487 16.5308 17.4351 16.8338 17.6293C17.1392 17.821 17.4884 17.9169 17.8814 17.9169C18.0992 17.9169 18.3028 17.8885 18.4922 17.8317C18.6839 17.7725 18.8556 17.6861 19.0071 17.5724C19.161 17.4588 19.29 17.3191 19.3942 17.1534C19.5007 16.9877 19.5741 16.7983 19.6143 16.5852L20.9425 16.5923C20.8928 16.938 20.785 17.2623 20.6193 17.5653C20.456 17.8684 20.2417 18.1359 19.9766 18.3679C19.7114 18.5975 19.4013 18.7775 19.0462 18.9077C18.6911 19.0355 18.2969 19.0994 17.8636 19.0994C17.2244 19.0994 16.6539 18.9515 16.152 18.6555C15.6501 18.3596 15.2547 17.9323 14.9659 17.3736C14.6771 16.8149 14.5327 16.1449 14.5327 15.3636C14.5327 14.58 14.6783 13.91 14.9695 13.3537C15.2607 12.795 15.6572 12.3677 16.1591 12.0717C16.661 11.7758 17.2292 11.6278 17.8636 11.6278C18.2685 11.6278 18.6449 11.6847 18.9929 11.7983C19.3409 11.9119 19.651 12.0788 19.9233 12.299C20.1955 12.5168 20.4193 12.7843 20.5945 13.1016C20.772 13.4164 20.888 13.7763 20.9425 14.1811Z" fill="#880000"/>
<path d="M2.07386 23.0384C1.90246 23.0384 1.74905 22.9943 1.61364 22.9062C1.47822 22.8182 1.37121 22.6903 1.29261 22.5227C1.21402 22.3551 1.17472 22.1515 1.17472 21.9119C1.17472 21.6695 1.21449 21.465 1.29403 21.2983C1.37453 21.1307 1.48295 21.0043 1.61932 20.919C1.75568 20.8329 1.90767 20.7898 2.07528 20.7898C2.20313 20.7898 2.30824 20.8116 2.39062 20.8551C2.47301 20.8977 2.53835 20.9493 2.58665 21.0099C2.63494 21.0696 2.67235 21.1259 2.69886 21.179H2.72017V20.0909H3.2358V23H2.73011V22.6562H2.69886C2.67235 22.7093 2.634 22.7656 2.58381 22.8253C2.53362 22.884 2.46733 22.9342 2.38494 22.9759C2.30256 23.0175 2.19886 23.0384 2.07386 23.0384ZM2.21733 22.6165C2.32623 22.6165 2.41903 22.5871 2.49574 22.5284C2.57244 22.4687 2.63068 22.3859 2.67045 22.2798C2.71023 22.1738 2.73011 22.0502 2.73011 21.9091C2.73011 21.768 2.71023 21.6454 2.67045 21.5412C2.63163 21.437 2.57386 21.3561 2.49716 21.2983C2.4214 21.2405 2.32813 21.2116 2.21733 21.2116C2.10275 21.2116 2.0071 21.2415 1.9304 21.3011C1.85369 21.3608 1.79593 21.4432 1.7571 21.5483C1.71828 21.6534 1.69886 21.7737 1.69886 21.9091C1.69886 22.0455 1.71828 22.1671 1.7571 22.2741C1.79688 22.3802 1.85511 22.464 1.93182 22.5256C2.00947 22.5862 2.10464 22.6165 2.21733 22.6165ZM3.78374 23V20.8182H4.28232V21.1818H4.30504C4.34482 21.0559 4.413 20.9588 4.50959 20.8906C4.60713 20.8215 4.71839 20.7869 4.84339 20.7869C4.8718 20.7869 4.90353 20.7884 4.93857 20.7912C4.97455 20.7931 5.00438 20.7964 5.02805 20.8011V21.2741C5.00627 21.2666 4.97171 21.2599 4.92436 21.2543C4.87796 21.2476 4.83298 21.2443 4.78942 21.2443C4.69567 21.2443 4.61139 21.2647 4.53658 21.3054C4.46271 21.3452 4.40447 21.4006 4.36186 21.4716C4.31925 21.5426 4.29794 21.6245 4.29794 21.7173V23H3.78374ZM6.24574 23.0426C6.02699 23.0426 5.83807 22.9972 5.67898 22.9062C5.52083 22.8144 5.39915 22.6847 5.31392 22.517C5.22869 22.3485 5.18608 22.1501 5.18608 21.9219C5.18608 21.6974 5.22869 21.5005 5.31392 21.331C5.40009 21.1605 5.52036 21.0279 5.67472 20.9332C5.82907 20.8376 6.01042 20.7898 6.21875 20.7898C6.35322 20.7898 6.48011 20.8116 6.59943 20.8551C6.7197 20.8977 6.82576 20.964 6.91761 21.054C7.01042 21.1439 7.08333 21.2585 7.13636 21.3977C7.18939 21.536 7.21591 21.7008 7.21591 21.892V22.0497H5.42756V21.7031H6.72301C6.72206 21.6046 6.70076 21.517 6.65909 21.4403C6.61742 21.3627 6.55919 21.3016 6.48438 21.2571C6.41051 21.2126 6.32434 21.1903 6.22585 21.1903C6.12074 21.1903 6.02841 21.2159 5.94886 21.267C5.86932 21.3172 5.80729 21.3835 5.76278 21.4659C5.71922 21.5473 5.69697 21.6368 5.69602 21.7344V22.0369C5.69602 22.1638 5.71922 22.2727 5.76562 22.3636C5.81203 22.4536 5.87689 22.5227 5.96023 22.571C6.04356 22.6184 6.1411 22.642 6.25284 22.642C6.32765 22.642 6.39536 22.6316 6.45597 22.6108C6.51657 22.589 6.56913 22.5573 6.61364 22.5156C6.65814 22.474 6.69176 22.4223 6.71449 22.3608L7.1946 22.4148C7.1643 22.5417 7.10653 22.6525 7.02131 22.7472C6.93703 22.8409 6.82907 22.9138 6.69744 22.9659C6.56581 23.017 6.41525 23.0426 6.24574 23.0426ZM9.37536 21.3949L8.90661 21.446C8.89335 21.3987 8.87015 21.3542 8.837 21.3125C8.80481 21.2708 8.76125 21.2372 8.70632 21.2116C8.6514 21.1861 8.58416 21.1733 8.50462 21.1733C8.39761 21.1733 8.30765 21.1965 8.23473 21.2429C8.16276 21.2893 8.12725 21.3494 8.1282 21.4233C8.12725 21.4867 8.15045 21.5384 8.1978 21.5781C8.24609 21.6179 8.32564 21.6506 8.43643 21.6761L8.80859 21.7557C9.01503 21.8002 9.16844 21.8707 9.26882 21.9673C9.37015 22.0639 9.42128 22.1903 9.42223 22.3466C9.42128 22.4839 9.38104 22.6051 9.30149 22.7102C9.22289 22.8144 9.11352 22.8958 8.97337 22.9545C8.83321 23.0133 8.67223 23.0426 8.49041 23.0426C8.22337 23.0426 8.0084 22.9867 7.84553 22.875C7.68265 22.7623 7.58558 22.6056 7.55433 22.4048L8.05575 22.3565C8.07848 22.455 8.12678 22.5294 8.20064 22.5795C8.2745 22.6297 8.37062 22.6548 8.48899 22.6548C8.61115 22.6548 8.70916 22.6297 8.78303 22.5795C8.85784 22.5294 8.89524 22.4673 8.89524 22.3935C8.89524 22.331 8.87109 22.2794 8.8228 22.2386C8.77545 22.1979 8.70159 22.1667 8.60121 22.1449L8.22905 22.0668C8.01977 22.0232 7.86494 21.9498 7.76456 21.8466C7.66418 21.7424 7.61446 21.6108 7.61541 21.4517C7.61446 21.3172 7.65092 21.2008 7.72479 21.1023C7.7996 21.0028 7.90329 20.9261 8.03587 20.8722C8.16939 20.8172 8.32327 20.7898 8.49751 20.7898C8.7532 20.7898 8.95443 20.8442 9.10121 20.9531C9.24893 21.062 9.34032 21.2093 9.37536 21.3949ZM11.5707 21.3949L11.1019 21.446C11.0887 21.3987 11.0655 21.3542 11.0323 21.3125C11.0001 21.2708 10.9566 21.2372 10.9016 21.2116C10.8467 21.1861 10.7795 21.1733 10.6999 21.1733C10.5929 21.1733 10.503 21.1965 10.43 21.2429C10.3581 21.2893 10.3226 21.3494 10.3235 21.4233C10.3226 21.4867 10.3458 21.5384 10.3931 21.5781C10.4414 21.6179 10.521 21.6506 10.6317 21.6761L11.0039 21.7557C11.2103 21.8002 11.3638 21.8707 11.4641 21.9673C11.5655 22.0639 11.6166 22.1903 11.6175 22.3466C11.6166 22.4839 11.5763 22.6051 11.4968 22.7102C11.4182 22.8144 11.3088 22.8958 11.1687 22.9545C11.0285 23.0133 10.8675 23.0426 10.6857 23.0426C10.4187 23.0426 10.2037 22.9867 10.0408 22.875C9.87796 22.7623 9.78089 22.6056 9.74964 22.4048L10.2511 22.3565C10.2738 22.455 10.3221 22.5294 10.396 22.5795C10.4698 22.6297 10.5659 22.6548 10.6843 22.6548C10.8065 22.6548 10.9045 22.6297 10.9783 22.5795C11.0531 22.5294 11.0906 22.4673 11.0906 22.3935C11.0906 22.331 11.0664 22.2794 11.0181 22.2386C10.9708 22.1979 10.8969 22.1667 10.7965 22.1449L10.4244 22.0668C10.2151 22.0232 10.0603 21.9498 9.95987 21.8466C9.85949 21.7424 9.80978 21.6108 9.81072 21.4517C9.80978 21.3172 9.84624 21.2008 9.9201 21.1023C9.99491 21.0028 10.0986 20.9261 10.2312 20.8722C10.3647 20.8172 10.5186 20.7898 10.6928 20.7898C10.9485 20.7898 11.1497 20.8442 11.2965 20.9531C11.4442 21.062 11.5356 21.2093 11.5707 21.3949ZM14.5543 21.0724H14.0231C14.0079 20.9853 13.98 20.9081 13.9393 20.8409C13.8986 20.7727 13.8479 20.715 13.7873 20.6676C13.7267 20.6203 13.6576 20.5848 13.5799 20.5611C13.5032 20.5365 13.4203 20.5241 13.3313 20.5241C13.1732 20.5241 13.033 20.5639 12.9109 20.6435C12.7887 20.7221 12.6931 20.8376 12.6239 20.9901C12.5548 21.1416 12.5202 21.3267 12.5202 21.5455C12.5202 21.768 12.5548 21.9555 12.6239 22.108C12.694 22.2595 12.7897 22.3741 12.9109 22.4517C13.033 22.5284 13.1727 22.5668 13.3299 22.5668C13.417 22.5668 13.4985 22.5554 13.5742 22.5327C13.6509 22.509 13.7196 22.4744 13.7802 22.429C13.8417 22.3835 13.8933 22.3277 13.935 22.2614C13.9776 22.1951 14.007 22.1193 14.0231 22.0341L14.5543 22.0369C14.5344 22.1752 14.4914 22.3049 14.4251 22.4261C14.3597 22.5473 14.274 22.6544 14.168 22.7472C14.0619 22.839 13.9379 22.911 13.7958 22.9631C13.6538 23.0142 13.4961 23.0398 13.3228 23.0398C13.0671 23.0398 12.8389 22.9806 12.6381 22.8622C12.4374 22.7438 12.2792 22.5729 12.1637 22.3494C12.0482 22.1259 11.9904 21.858 11.9904 21.5455C11.9904 21.232 12.0487 20.964 12.1651 20.7415C12.2816 20.518 12.4402 20.3471 12.641 20.2287C12.8417 20.1103 13.069 20.0511 13.3228 20.0511C13.4847 20.0511 13.6353 20.0739 13.7745 20.1193C13.9137 20.1648 14.0378 20.2315 14.1467 20.3196C14.2556 20.4067 14.3451 20.5137 14.4151 20.6406C14.4862 20.7666 14.5326 20.9105 14.5543 21.0724ZM15.9659 23.0426C15.7528 23.0426 15.5682 22.9957 15.4119 22.902C15.2557 22.8082 15.1345 22.6771 15.0483 22.5085C14.9631 22.34 14.9205 22.143 14.9205 21.9176C14.9205 21.6922 14.9631 21.4948 15.0483 21.3253C15.1345 21.1558 15.2557 21.0241 15.4119 20.9304C15.5682 20.8366 15.7528 20.7898 15.9659 20.7898C16.179 20.7898 16.3636 20.8366 16.5199 20.9304C16.6761 21.0241 16.7969 21.1558 16.8821 21.3253C16.9683 21.4948 17.0114 21.6922 17.0114 21.9176C17.0114 22.143 16.9683 22.34 16.8821 22.5085C16.7969 22.6771 16.6761 22.8082 16.5199 22.902C16.3636 22.9957 16.179 23.0426 15.9659 23.0426ZM15.9688 22.6307C16.0843 22.6307 16.1809 22.599 16.2585 22.5355C16.3362 22.4711 16.3939 22.3849 16.4318 22.277C16.4706 22.169 16.4901 22.0488 16.4901 21.9162C16.4901 21.7827 16.4706 21.6619 16.4318 21.554C16.3939 21.4451 16.3362 21.3584 16.2585 21.294C16.1809 21.2296 16.0843 21.1974 15.9688 21.1974C15.8504 21.1974 15.7519 21.2296 15.6733 21.294C15.5956 21.3584 15.5374 21.4451 15.4986 21.554C15.4607 21.6619 15.4418 21.7827 15.4418 21.9162C15.4418 22.0488 15.4607 22.169 15.4986 22.277C15.5374 22.3849 15.5956 22.4711 15.6733 22.5355C15.7519 22.599 15.8504 22.6307 15.9688 22.6307ZM18.2575 23.0384C18.0861 23.0384 17.9326 22.9943 17.7972 22.9062C17.6618 22.8182 17.5548 22.6903 17.4762 22.5227C17.3976 22.3551 17.3583 22.1515 17.3583 21.9119C17.3583 21.6695 17.3981 21.465 17.4776 21.2983C17.5581 21.1307 17.6665 21.0043 17.8029 20.919C17.9393 20.8329 18.0913 20.7898 18.2589 20.7898C18.3867 20.7898 18.4918 20.8116 18.5742 20.8551C18.6566 20.8977 18.7219 20.9493 18.7702 21.0099C18.8185 21.0696 18.8559 21.1259 18.8825 21.179H18.9038V20.0909H19.4194V23H18.9137V22.6562H18.8825C18.8559 22.7093 18.8176 22.7656 18.7674 22.8253C18.7172 22.884 18.6509 22.9342 18.5685 22.9759C18.4862 23.0175 18.3825 23.0384 18.2575 23.0384ZM18.4009 22.6165C18.5098 22.6165 18.6026 22.5871 18.6793 22.5284C18.756 22.4687 18.8143 22.3859 18.854 22.2798C18.8938 22.1738 18.9137 22.0502 18.9137 21.9091C18.9137 21.768 18.8938 21.6454 18.854 21.5412C18.8152 21.437 18.7575 21.3561 18.6808 21.2983C18.605 21.2405 18.5117 21.2116 18.4009 21.2116C18.2863 21.2116 18.1907 21.2415 18.114 21.3011C18.0373 21.3608 17.9795 21.4432 17.9407 21.5483C17.9019 21.6534 17.8825 21.7737 17.8825 21.9091C17.8825 22.0455 17.9019 22.1671 17.9407 22.2741C17.9805 22.3802 18.0387 22.464 18.1154 22.5256C18.1931 22.5862 18.2882 22.6165 18.4009 22.6165ZM20.9332 23.0426C20.7145 23.0426 20.5256 22.9972 20.3665 22.9062C20.2083 22.8144 20.0866 22.6847 20.0014 22.517C19.9162 22.3485 19.8736 22.1501 19.8736 21.9219C19.8736 21.6974 19.9162 21.5005 20.0014 21.331C20.0876 21.1605 20.2079 21.0279 20.3622 20.9332C20.5166 20.8376 20.6979 20.7898 20.9062 20.7898C21.0407 20.7898 21.1676 20.8116 21.2869 20.8551C21.4072 20.8977 21.5133 20.964 21.6051 21.054C21.6979 21.1439 21.7708 21.2585 21.8239 21.3977C21.8769 21.536 21.9034 21.7008 21.9034 21.892V22.0497H20.1151V21.7031H21.4105C21.4096 21.6046 21.3883 21.517 21.3466 21.4403C21.3049 21.3627 21.2467 21.3016 21.1719 21.2571C21.098 21.2126 21.0118 21.1903 20.9134 21.1903C20.8082 21.1903 20.7159 21.2159 20.6364 21.267C20.5568 21.3172 20.4948 21.3835 20.4503 21.4659C20.4067 21.5473 20.3845 21.6368 20.3835 21.7344V22.0369C20.3835 22.1638 20.4067 22.2727 20.4531 22.3636C20.4995 22.4536 20.5644 22.5227 20.6477 22.571C20.7311 22.6184 20.8286 22.642 20.9403 22.642C21.0152 22.642 21.0829 22.6316 21.1435 22.6108C21.2041 22.589 21.2566 22.5573 21.3011 22.5156C21.3456 22.474 21.3793 22.4223 21.402 22.3608L21.8821 22.4148C21.8518 22.5417 21.794 22.6525 21.7088 22.7472C21.6245 22.8409 21.5166 22.9138 21.3849 22.9659C21.2533 23.017 21.1027 23.0426 20.9332 23.0426Z" fill="#000576"/>
</svg>
